<svg width="1330" height="888" viewBox="0 0 1330 888" fill="none" xmlns="http://www.w3.org/2000/svg">
<g clip-path="url(#clip0_201_2)">
<rect width="1330" height="888" rx="24" fill="#6772E5"/>
<rect x="125.774" y="246.625" width="179.805" height="59.75" rx="29.875" fill="#808AF2"/>
<path fill-rule="evenodd" clip-rule="evenodd" d="M177.498 267.493C177.51 267.537 177.516 267.582 177.516 267.628V274.689C177.516 274.78 177.493 274.869 177.448 274.947C177.403 275.026 177.338 275.091 177.26 275.136L171.384 278.548V285.312C171.384 285.496 171.287 285.666 171.129 285.759L158.865 292.881C158.836 292.897 158.806 292.907 158.775 292.918C158.764 292.922 158.753 292.929 158.741 292.932C158.655 292.955 158.565 292.955 158.479 292.932C158.465 292.928 158.452 292.921 158.439 292.915C158.411 292.905 158.382 292.896 158.355 292.881L146.093 285.759C146.015 285.713 145.95 285.648 145.905 285.57C145.86 285.492 145.836 285.403 145.836 285.312V264.127C145.836 264.081 145.843 264.036 145.854 263.992C145.858 263.977 145.867 263.964 145.872 263.949C145.882 263.922 145.891 263.894 145.905 263.869C145.914 263.852 145.928 263.839 145.94 263.823C145.954 263.803 145.968 263.782 145.985 263.764C146 263.749 146.019 263.738 146.035 263.725C146.054 263.71 146.07 263.693 146.092 263.681H146.092L152.223 260.12C152.301 260.074 152.389 260.051 152.479 260.051C152.568 260.051 152.656 260.074 152.734 260.12L158.865 263.681H158.866C158.887 263.693 158.904 263.71 158.923 263.724C158.939 263.737 158.958 263.749 158.972 263.763C158.99 263.782 159.003 263.803 159.018 263.823C159.029 263.839 159.044 263.852 159.053 263.869C159.067 263.895 159.076 263.922 159.086 263.949C159.091 263.964 159.1 263.977 159.104 263.993C159.116 264.037 159.122 264.082 159.122 264.127V277.359L164.231 274.391V267.627C164.231 267.582 164.237 267.536 164.249 267.493C164.253 267.478 164.262 267.464 164.267 267.45C164.277 267.422 164.286 267.395 164.3 267.37C164.309 267.353 164.323 267.339 164.334 267.324C164.35 267.303 164.362 267.282 164.38 267.264C164.395 267.249 164.413 267.238 164.43 267.226C164.449 267.21 164.466 267.193 164.486 267.181H164.487L170.619 263.62C170.696 263.575 170.784 263.551 170.874 263.551C170.964 263.551 171.052 263.575 171.129 263.62L177.26 267.181C177.282 267.194 177.299 267.21 177.318 267.225C177.334 267.238 177.352 267.249 177.367 267.264C177.385 267.282 177.398 267.303 177.413 267.324C177.424 267.339 177.438 267.353 177.447 267.37C177.462 267.395 177.47 267.422 177.481 267.45C177.486 267.464 177.495 267.478 177.498 267.493V267.493ZM176.494 274.391V268.519L174.349 269.765L171.384 271.487V277.359L176.495 274.391H176.494ZM170.363 285.014V279.138L167.447 280.818L159.121 285.611V291.543L170.363 285.014ZM146.858 265.019V285.014L158.099 291.542V285.612L152.227 282.259L152.225 282.258L152.222 282.257C152.202 282.245 152.186 282.228 152.167 282.214C152.151 282.201 152.133 282.191 152.119 282.177L152.118 282.175C152.101 282.159 152.089 282.139 152.075 282.121C152.063 282.104 152.047 282.089 152.037 282.071L152.037 282.069C152.025 282.05 152.018 282.026 152.01 282.004C152.001 281.985 151.991 281.967 151.985 281.947V281.946C151.979 281.921 151.978 281.896 151.975 281.871C151.973 281.851 151.968 281.832 151.968 281.813V281.811V267.986L149.004 266.264L146.858 265.019V265.019ZM152.479 261.161L147.371 264.127L152.478 267.094L157.586 264.127L152.478 261.161H152.479ZM155.136 279.673L158.1 277.952V265.019L155.954 266.265L152.99 267.986V280.92L155.136 279.673ZM170.874 264.661L165.766 267.628L170.874 270.594L175.981 267.627L170.874 264.661V264.661ZM170.363 271.487L167.399 269.765L165.253 268.519V274.391L168.217 276.112L170.363 277.359V271.487ZM158.609 284.72L166.102 280.405L169.847 278.249L164.743 275.285L158.866 278.698L153.51 281.808L158.609 284.72V284.72Z" fill="white"/>
<path d="M198.606 281.693H204.499V284H195.747V266.571H198.606V281.693ZM205.937 277.028C205.937 275.641 206.222 274.412 206.79 273.342C207.375 272.272 208.161 271.444 209.147 270.859C210.15 270.257 211.254 269.956 212.458 269.956C213.544 269.956 214.489 270.174 215.291 270.608C216.111 271.026 216.763 271.553 217.248 272.188V270.182H220.131V284H217.248V281.944C216.763 282.596 216.102 283.139 215.266 283.574C214.43 284.008 213.477 284.226 212.407 284.226C211.22 284.226 210.134 283.925 209.147 283.323C208.161 282.704 207.375 281.852 206.79 280.765C206.222 279.661 205.937 278.416 205.937 277.028ZM217.248 277.078C217.248 276.125 217.047 275.298 216.646 274.596C216.261 273.894 215.751 273.359 215.116 272.991C214.481 272.623 213.795 272.439 213.059 272.439C212.324 272.439 211.638 272.623 211.003 272.991C210.368 273.342 209.849 273.868 209.448 274.571C209.064 275.256 208.871 276.075 208.871 277.028C208.871 277.981 209.064 278.817 209.448 279.536C209.849 280.255 210.368 280.807 211.003 281.191C211.655 281.559 212.341 281.743 213.059 281.743C213.795 281.743 214.481 281.559 215.116 281.191C215.751 280.823 216.261 280.288 216.646 279.586C217.047 278.867 217.248 278.031 217.248 277.078ZM226.745 272.188C227.163 271.486 227.715 270.943 228.401 270.558C229.103 270.157 229.93 269.956 230.883 269.956V272.915H230.156C229.036 272.915 228.183 273.2 227.598 273.768C227.03 274.337 226.745 275.323 226.745 276.727V284H223.887V270.182H226.745V272.188ZM232.558 277.028C232.558 275.641 232.842 274.412 233.411 273.342C233.996 272.272 234.782 271.444 235.768 270.859C236.771 270.257 237.875 269.956 239.079 269.956C240.165 269.956 241.11 270.174 241.912 270.608C242.732 271.026 243.384 271.553 243.868 272.188V270.182H246.752V284H243.868V281.944C243.384 282.596 242.723 283.139 241.887 283.574C241.051 284.008 240.098 284.226 239.028 284.226C237.841 284.226 236.755 283.925 235.768 283.323C234.782 282.704 233.996 281.852 233.411 280.765C232.842 279.661 232.558 278.416 232.558 277.028ZM243.868 277.078C243.868 276.125 243.668 275.298 243.267 274.596C242.882 273.894 242.372 273.359 241.737 272.991C241.102 272.623 240.416 272.439 239.68 272.439C238.945 272.439 238.259 272.623 237.624 272.991C236.989 273.342 236.47 273.868 236.069 274.571C235.685 275.256 235.492 276.075 235.492 277.028C235.492 277.981 235.685 278.817 236.069 279.536C236.47 280.255 236.989 280.807 237.624 281.191C238.276 281.559 238.962 281.743 239.68 281.743C240.416 281.743 241.102 281.559 241.737 281.191C242.372 280.823 242.882 280.288 243.267 279.586C243.668 278.867 243.868 278.031 243.868 277.078ZM255.849 281.442L259.761 270.182H262.796L257.529 284H254.119L248.877 270.182H251.937L255.849 281.442ZM277.621 276.752C277.621 277.271 277.588 277.739 277.521 278.157H266.963C267.047 279.26 267.456 280.146 268.192 280.815C268.928 281.484 269.83 281.818 270.9 281.818C272.438 281.818 273.525 281.175 274.16 279.887H277.245C276.827 281.158 276.066 282.203 274.963 283.022C273.876 283.824 272.522 284.226 270.9 284.226C269.58 284.226 268.393 283.933 267.339 283.348C266.303 282.746 265.483 281.91 264.882 280.84C264.296 279.753 264.004 278.5 264.004 277.078C264.004 275.657 264.288 274.412 264.857 273.342C265.442 272.255 266.253 271.419 267.289 270.834C268.342 270.249 269.546 269.956 270.9 269.956C272.204 269.956 273.366 270.24 274.386 270.809C275.406 271.377 276.2 272.18 276.769 273.216C277.337 274.236 277.621 275.415 277.621 276.752ZM274.637 275.85C274.62 274.796 274.244 273.952 273.508 273.317C272.773 272.681 271.862 272.364 270.775 272.364C269.789 272.364 268.944 272.681 268.242 273.317C267.54 273.935 267.122 274.78 266.988 275.85H274.637ZM283.294 265.442V284H280.435V265.442H283.294Z" fill="white"/>
<path d="M137.883 380.515H149.525V387.375H128.996V350.89H137.883V380.515ZM151.997 372.823C151.997 369.843 152.552 367.227 153.66 364.975C154.804 362.723 156.346 360.99 158.286 359.778C160.226 358.565 162.392 357.958 164.783 357.958C166.827 357.958 168.611 358.374 170.136 359.206C171.695 360.037 172.89 361.129 173.722 362.48V358.374H182.609V387.375H173.722V383.269C172.856 384.62 171.643 385.712 170.084 386.543C168.559 387.375 166.775 387.791 164.731 387.791C162.374 387.791 160.226 387.184 158.286 385.972C156.346 384.724 154.804 382.975 153.66 380.723C152.552 378.436 151.997 375.802 151.997 372.823ZM173.722 372.875C173.722 370.657 173.098 368.907 171.851 367.625C170.638 366.343 169.148 365.702 167.381 365.702C165.614 365.702 164.107 366.343 162.86 367.625C161.647 368.873 161.04 370.605 161.04 372.823C161.04 375.04 161.647 376.807 162.86 378.124C164.107 379.406 165.614 380.047 167.381 380.047C169.148 380.047 170.638 379.406 171.851 378.124C173.098 376.842 173.722 375.092 173.722 372.875ZM197.926 363.208C198.966 361.614 200.265 360.367 201.824 359.466C203.383 358.53 205.116 358.062 207.021 358.062V367.469H204.579C202.361 367.469 200.698 367.955 199.589 368.925C198.48 369.86 197.926 371.523 197.926 373.914V387.375H189.039V358.374H197.926V363.208ZM209.502 372.823C209.502 369.843 210.057 367.227 211.165 364.975C212.309 362.723 213.851 360.99 215.791 359.778C217.731 358.565 219.897 357.958 222.287 357.958C224.332 357.958 226.116 358.374 227.641 359.206C229.2 360.037 230.395 361.129 231.227 362.48V358.374H240.114V387.375H231.227V383.269C230.361 384.62 229.148 385.712 227.589 386.543C226.064 387.375 224.28 387.791 222.235 387.791C219.879 387.791 217.731 387.184 215.791 385.972C213.851 384.724 212.309 382.975 211.165 380.723C210.057 378.436 209.502 375.802 209.502 372.823ZM231.227 372.875C231.227 370.657 230.603 368.907 229.356 367.625C228.143 366.343 226.653 365.702 224.886 365.702C223.119 365.702 221.612 366.343 220.364 367.625C219.152 368.873 218.545 370.605 218.545 372.823C218.545 375.04 219.152 376.807 220.364 378.124C221.612 379.406 223.119 380.047 224.886 380.047C226.653 380.047 228.143 379.406 229.356 378.124C230.603 376.842 231.227 375.092 231.227 372.875ZM259.589 379.059L265.877 358.374H275.336L265.046 387.375H254.08L243.789 358.374H253.3L259.589 379.059ZM306.415 372.407C306.415 373.238 306.363 374.105 306.259 375.006H286.146C286.284 376.807 286.856 378.193 287.861 379.163C288.9 380.099 290.165 380.567 291.655 380.567C293.872 380.567 295.414 379.631 296.28 377.76H305.739C305.254 379.666 304.371 381.381 303.089 382.905C301.841 384.43 300.265 385.625 298.359 386.491C296.453 387.358 294.323 387.791 291.967 387.791C289.125 387.791 286.596 387.184 284.378 385.972C282.161 384.759 280.429 383.027 279.181 380.774C277.934 378.522 277.31 375.889 277.31 372.875C277.31 369.86 277.917 367.227 279.129 364.975C280.377 362.723 282.109 360.99 284.327 359.778C286.544 358.565 289.091 357.958 291.967 357.958C294.773 357.958 297.268 358.548 299.451 359.726C301.633 360.904 303.331 362.584 304.544 364.767C305.791 366.95 306.415 369.496 306.415 372.407ZM297.32 370.068C297.32 368.544 296.8 367.331 295.761 366.43C294.721 365.529 293.422 365.079 291.863 365.079C290.373 365.079 289.108 365.512 288.069 366.378C287.064 367.244 286.44 368.474 286.198 370.068H297.32ZM319.991 348.915V387.375H311.103V348.915H319.991ZM346.176 350.89V372.719C346.176 374.902 346.713 376.582 347.788 377.76C348.862 378.938 350.438 379.527 352.517 379.527C354.596 379.527 356.19 378.938 357.299 377.76C358.407 376.582 358.962 374.902 358.962 372.719V350.89H367.849V372.667C367.849 375.924 367.156 378.678 365.77 380.93C364.384 383.183 362.513 384.88 360.157 386.024C357.836 387.167 355.237 387.739 352.361 387.739C349.485 387.739 346.904 387.184 344.617 386.076C342.365 384.932 340.581 383.235 339.264 380.982C337.947 378.696 337.289 375.924 337.289 372.667V350.89H346.176ZM391.76 358.062C395.156 358.062 397.859 359.171 399.868 361.389C401.912 363.572 402.935 366.586 402.935 370.432V387.375H394.099V371.627C394.099 369.687 393.597 368.18 392.592 367.106C391.587 366.032 390.236 365.495 388.538 365.495C386.84 365.495 385.489 366.032 384.484 367.106C383.48 368.18 382.977 369.687 382.977 371.627V387.375H374.09V358.374H382.977V362.22C383.878 360.938 385.091 359.933 386.615 359.206C388.14 358.444 389.855 358.062 391.76 358.062ZM413.58 355.36C412.021 355.36 410.739 354.909 409.734 354.009C408.764 353.073 408.279 351.93 408.279 350.578C408.279 349.192 408.764 348.049 409.734 347.148C410.739 346.213 412.021 345.745 413.58 345.745C415.105 345.745 416.352 346.213 417.322 347.148C418.327 348.049 418.829 349.192 418.829 350.578C418.829 351.93 418.327 353.073 417.322 354.009C416.352 354.909 415.105 355.36 413.58 355.36ZM417.998 358.374V387.375H409.11V358.374H417.998ZM422.671 372.927C422.671 370.051 423.26 367.487 424.438 365.235C425.651 362.983 427.262 361.233 429.272 359.985C431.316 358.703 433.534 358.062 435.924 358.062C437.761 358.062 439.406 358.392 440.862 359.05C442.317 359.674 443.495 360.557 444.396 361.701V358.374H453.283V401.2H444.396V383.737C443.391 384.95 442.161 385.92 440.706 386.647C439.285 387.375 437.657 387.739 435.82 387.739C433.464 387.739 431.281 387.115 429.272 385.868C427.262 384.62 425.651 382.871 424.438 380.619C423.26 378.366 422.671 375.802 422.671 372.927ZM444.396 372.875C444.396 371.315 444.084 370.016 443.46 368.977C442.871 367.903 442.092 367.106 441.122 366.586C440.151 366.032 439.129 365.754 438.055 365.754C437.016 365.754 436.011 366.032 435.041 366.586C434.071 367.106 433.274 367.903 432.65 368.977C432.026 370.051 431.714 371.367 431.714 372.927C431.714 374.486 432.026 375.802 432.65 376.877C433.274 377.916 434.071 378.713 435.041 379.267C436.011 379.787 437.016 380.047 438.055 380.047C439.095 380.047 440.099 379.787 441.07 379.267C442.074 378.713 442.871 377.899 443.46 376.825C444.084 375.75 444.396 374.434 444.396 372.875ZM488.35 358.374V387.375H479.462V383.425C478.561 384.707 477.331 385.747 475.772 386.543C474.248 387.306 472.55 387.687 470.679 387.687C468.461 387.687 466.504 387.202 464.806 386.232C463.108 385.227 461.792 383.789 460.856 381.918C459.921 380.047 459.453 377.847 459.453 375.317V358.374H468.288V374.122C468.288 376.062 468.791 377.569 469.795 378.644C470.8 379.718 472.151 380.255 473.849 380.255C475.582 380.255 476.95 379.718 477.955 378.644C478.96 377.569 479.462 376.062 479.462 374.122V358.374H488.35ZM522.071 372.407C522.071 373.238 522.019 374.105 521.915 375.006H501.802C501.94 376.807 502.512 378.193 503.517 379.163C504.556 380.099 505.821 380.567 507.311 380.567C509.528 380.567 511.07 379.631 511.936 377.76H521.395C520.91 379.666 520.027 381.381 518.745 382.905C517.497 384.43 515.921 385.625 514.015 386.491C512.11 387.358 509.979 387.791 507.623 387.791C504.781 387.791 502.252 387.184 500.035 385.972C497.817 384.759 496.085 383.027 494.837 380.774C493.59 378.522 492.966 375.889 492.966 372.875C492.966 369.86 493.573 367.227 494.785 364.975C496.033 362.723 497.765 360.99 499.983 359.778C502.2 358.565 504.747 357.958 507.623 357.958C510.429 357.958 512.924 358.548 515.107 359.726C517.289 360.904 518.987 362.584 520.2 364.767C521.447 366.95 522.071 369.496 522.071 372.407ZM512.976 370.068C512.976 368.544 512.456 367.331 511.417 366.43C510.377 365.529 509.078 365.079 507.519 365.079C506.029 365.079 504.764 365.512 503.725 366.378C502.72 367.244 502.096 368.474 501.854 370.068H512.976ZM572.023 350.89L559.082 387.375H547.96L535.019 350.89H544.478L553.521 378.436L562.616 350.89H572.023ZM573.971 372.823C573.971 369.843 574.525 367.227 575.634 364.975C576.777 362.723 578.319 360.99 580.259 359.778C582.2 358.565 584.365 357.958 586.756 357.958C588.8 357.958 590.584 358.374 592.109 359.206C593.668 360.037 594.864 361.129 595.695 362.48V358.374H604.582V387.375H595.695V383.269C594.829 384.62 593.616 385.712 592.057 386.543C590.532 387.375 588.748 387.791 586.704 387.791C584.348 387.791 582.2 387.184 580.259 385.972C578.319 384.724 576.777 382.975 575.634 380.723C574.525 378.436 573.971 375.802 573.971 372.823ZM595.695 372.875C595.695 370.657 595.071 368.907 593.824 367.625C592.611 366.343 591.121 365.702 589.354 365.702C587.587 365.702 586.08 366.343 584.833 367.625C583.62 368.873 583.014 370.605 583.014 372.823C583.014 375.04 583.62 376.807 584.833 378.124C586.08 379.406 587.587 380.047 589.354 380.047C591.121 380.047 592.611 379.406 593.824 378.124C595.071 376.842 595.695 375.092 595.695 372.875ZM619.899 348.915V387.375H611.012V348.915H619.899ZM654.977 358.374V387.375H646.089V383.425C645.189 384.707 643.959 385.747 642.399 386.543C640.875 387.306 639.177 387.687 637.306 387.687C635.089 387.687 633.131 387.202 631.433 386.232C629.735 385.227 628.419 383.789 627.483 381.918C626.548 380.047 626.08 377.847 626.08 375.317V358.374H634.915V374.122C634.915 376.062 635.418 377.569 636.423 378.644C637.427 379.718 638.779 380.255 640.476 380.255C642.209 380.255 643.577 379.718 644.582 378.644C645.587 377.569 646.089 376.062 646.089 374.122V358.374H654.977ZM688.698 372.407C688.698 373.238 688.646 374.105 688.542 375.006H668.429C668.567 376.807 669.139 378.193 670.144 379.163C671.183 380.099 672.448 380.567 673.938 380.567C676.155 380.567 677.697 379.631 678.563 377.76H688.022C687.537 379.666 686.654 381.381 685.372 382.905C684.125 384.43 682.548 385.625 680.642 386.491C678.737 387.358 676.606 387.791 674.25 387.791C671.409 387.791 668.879 387.184 666.662 385.972C664.444 384.759 662.712 383.027 661.464 380.774C660.217 378.522 659.593 375.889 659.593 372.875C659.593 369.86 660.2 367.227 661.412 364.975C662.66 362.723 664.392 360.99 666.61 359.778C668.827 358.565 671.374 357.958 674.25 357.958C677.056 357.958 679.551 358.548 681.734 359.726C683.917 360.904 685.614 362.584 686.827 364.767C688.074 366.95 688.698 369.496 688.698 372.407ZM679.603 370.068C679.603 368.544 679.083 367.331 678.044 366.43C677.004 365.529 675.705 365.079 674.146 365.079C672.656 365.079 671.391 365.512 670.352 366.378C669.347 367.244 668.723 368.474 668.481 370.068H679.603ZM705.184 387.791C702.655 387.791 700.403 387.358 698.428 386.491C696.453 385.625 694.894 384.447 693.75 382.957C692.607 381.433 691.966 379.735 691.827 377.864H700.611C700.715 378.869 701.183 379.683 702.014 380.307C702.846 380.93 703.868 381.242 705.08 381.242C706.189 381.242 707.038 381.034 707.627 380.619C708.251 380.168 708.563 379.596 708.563 378.903C708.563 378.072 708.13 377.466 707.263 377.084C706.397 376.669 704.994 376.218 703.054 375.733C700.975 375.248 699.242 374.746 697.856 374.226C696.47 373.672 695.275 372.823 694.27 371.679C693.265 370.501 692.763 368.925 692.763 366.95C692.763 365.287 693.213 363.779 694.114 362.428C695.05 361.042 696.401 359.951 698.168 359.154C699.97 358.357 702.101 357.958 704.561 357.958C708.199 357.958 711.057 358.859 713.136 360.661C715.25 362.463 716.462 364.854 716.774 367.833H708.563C708.424 366.828 707.974 366.032 707.211 365.443C706.484 364.854 705.514 364.559 704.301 364.559C703.261 364.559 702.465 364.767 701.91 365.183C701.356 365.564 701.079 366.101 701.079 366.794C701.079 367.625 701.512 368.249 702.378 368.665C703.279 369.081 704.665 369.496 706.536 369.912C708.684 370.467 710.434 371.021 711.785 371.575C713.136 372.095 714.314 372.961 715.319 374.174C716.359 375.352 716.896 376.946 716.93 378.955C716.93 380.653 716.445 382.178 715.475 383.529C714.539 384.846 713.171 385.885 711.369 386.647C709.602 387.41 707.54 387.791 705.184 387.791Z" fill="white"/>
<path d="M163.187 482.186C163.55 482.572 163.745 483.086 163.729 483.615C163.713 484.145 163.487 484.646 163.102 485.009L141.979 504.917C141.549 505.322 140.976 505.543 140.385 505.532C139.794 505.521 139.23 505.279 138.815 504.858L131.676 497.613C131.487 497.428 131.337 497.206 131.235 496.962C131.132 496.717 131.079 496.455 131.079 496.19C131.079 495.925 131.131 495.663 131.233 495.418C131.335 495.174 131.485 494.952 131.674 494.766C131.863 494.58 132.086 494.433 132.332 494.334C132.578 494.236 132.841 494.187 133.106 494.191C133.371 494.195 133.633 494.252 133.876 494.358C134.119 494.464 134.338 494.617 134.521 494.809L140.472 500.847L160.363 482.101C160.749 481.737 161.263 481.543 161.793 481.559C162.322 481.575 162.824 481.8 163.187 482.186Z" fill="white"/>
<path d="M212.833 488.259C212.21 486.948 211.308 485.939 210.126 485.23C208.945 484.499 207.57 484.134 206.002 484.134C204.434 484.134 203.016 484.499 201.748 485.23C200.503 485.939 199.514 486.97 198.784 488.323C198.075 489.655 197.721 491.202 197.721 492.963C197.721 494.725 198.075 496.271 198.784 497.603C199.514 498.935 200.503 499.966 201.748 500.697C203.016 501.406 204.434 501.76 206.002 501.76C208.193 501.76 209.998 501.105 211.415 499.794C212.833 498.484 213.66 496.712 213.897 494.478H204.939V492.093H217.022V494.349C216.85 496.196 216.27 497.893 215.282 499.44C214.294 500.965 212.994 502.179 211.383 503.081C209.772 503.962 207.978 504.402 206.002 504.402C203.918 504.402 202.017 503.919 200.298 502.952C198.58 501.964 197.216 500.6 196.206 498.86C195.218 497.12 194.724 495.154 194.724 492.963C194.724 490.772 195.218 488.806 196.206 487.066C197.216 485.305 198.58 483.941 200.298 482.974C202.017 481.986 203.918 481.492 206.002 481.492C208.386 481.492 210.492 482.082 212.318 483.264C214.165 484.446 215.508 486.11 216.346 488.259H212.833ZM237.011 494.703C237.011 495.262 236.979 495.852 236.914 496.475H222.8C222.908 498.215 223.499 499.58 224.573 500.568C225.668 501.534 226.989 502.018 228.536 502.018C229.804 502.018 230.856 501.728 231.694 501.148C232.553 500.546 233.155 499.751 233.498 498.763H236.656C236.184 500.46 235.239 501.846 233.821 502.92C232.403 503.973 230.641 504.499 228.536 504.499C226.861 504.499 225.357 504.123 224.025 503.371C222.715 502.619 221.683 501.556 220.932 500.181C220.18 498.785 219.804 497.174 219.804 495.348C219.804 493.522 220.169 491.921 220.899 490.546C221.63 489.172 222.65 488.119 223.96 487.389C225.292 486.637 226.818 486.261 228.536 486.261C230.212 486.261 231.694 486.626 232.983 487.356C234.272 488.087 235.26 489.096 235.947 490.385C236.656 491.653 237.011 493.092 237.011 494.703ZM233.982 494.091C233.982 492.974 233.735 492.018 233.241 491.223C232.747 490.407 232.07 489.795 231.211 489.386C230.373 488.957 229.438 488.742 228.407 488.742C226.925 488.742 225.658 489.215 224.605 490.16C223.574 491.105 222.983 492.415 222.833 494.091H233.982ZM249.485 486.229C251.633 486.229 253.373 486.884 254.705 488.194C256.037 489.483 256.703 491.352 256.703 493.801V504.209H253.803V494.22C253.803 492.458 253.362 491.116 252.482 490.192C251.601 489.247 250.398 488.774 248.873 488.774C247.326 488.774 246.091 489.257 245.167 490.224C244.265 491.191 243.814 492.598 243.814 494.445V504.209H240.881V486.551H243.814V489.064C244.394 488.162 245.178 487.464 246.166 486.97C247.176 486.476 248.282 486.229 249.485 486.229ZM277.604 494.703C277.604 495.262 277.572 495.852 277.508 496.475H263.394C263.501 498.215 264.092 499.58 265.166 500.568C266.262 501.534 267.583 502.018 269.13 502.018C270.397 502.018 271.45 501.728 272.287 501.148C273.147 500.546 273.748 499.751 274.092 498.763H277.25C276.777 500.46 275.832 501.846 274.414 502.92C272.996 503.973 271.235 504.499 269.13 504.499C267.454 504.499 265.95 504.123 264.618 503.371C263.308 502.619 262.277 501.556 261.525 500.181C260.773 498.785 260.397 497.174 260.397 495.348C260.397 493.522 260.762 491.921 261.493 490.546C262.223 489.172 263.244 488.119 264.554 487.389C265.886 486.637 267.411 486.261 269.13 486.261C270.805 486.261 272.287 486.626 273.576 487.356C274.865 488.087 275.854 489.096 276.541 490.385C277.25 491.653 277.604 493.092 277.604 494.703ZM274.575 494.091C274.575 492.974 274.328 492.018 273.834 491.223C273.34 490.407 272.663 489.795 271.804 489.386C270.966 488.957 270.032 488.742 269.001 488.742C267.518 488.742 266.251 489.215 265.198 490.16C264.167 491.105 263.577 492.415 263.426 494.091H274.575ZM284.407 489.419C284.923 488.409 285.653 487.625 286.598 487.066C287.565 486.508 288.736 486.229 290.111 486.229V489.257H289.337C286.051 489.257 284.407 491.04 284.407 494.607V504.209H281.475V486.551H284.407V489.419ZM292.4 495.315C292.4 493.511 292.765 491.932 293.496 490.579C294.226 489.204 295.225 488.14 296.492 487.389C297.781 486.637 299.21 486.261 300.778 486.261C302.325 486.261 303.667 486.594 304.806 487.26C305.944 487.926 306.793 488.763 307.351 489.773V486.551H310.316V504.209H307.351V500.922C306.771 501.953 305.901 502.813 304.741 503.5C303.603 504.166 302.271 504.499 300.746 504.499C299.178 504.499 297.76 504.112 296.492 503.339C295.225 502.566 294.226 501.481 293.496 500.084C292.765 498.688 292.4 497.098 292.4 495.315ZM307.351 495.348C307.351 494.016 307.083 492.856 306.546 491.868C306.009 490.879 305.278 490.128 304.355 489.612C303.452 489.075 302.454 488.806 301.358 488.806C300.262 488.806 299.263 489.064 298.361 489.58C297.459 490.095 296.739 490.847 296.202 491.835C295.665 492.824 295.397 493.984 295.397 495.315C295.397 496.669 295.665 497.85 296.202 498.86C296.739 499.848 297.459 500.611 298.361 501.148C299.263 501.663 300.262 501.921 301.358 501.921C302.454 501.921 303.452 501.663 304.355 501.148C305.278 500.611 306.009 499.848 306.546 498.86C307.083 497.85 307.351 496.68 307.351 495.348ZM318.848 488.967V499.376C318.848 500.235 319.031 500.847 319.396 501.212C319.761 501.556 320.395 501.728 321.297 501.728H323.456V504.209H320.814C319.181 504.209 317.957 503.833 317.14 503.081C316.324 502.329 315.916 501.094 315.916 499.376V488.967H313.628V486.551H315.916V482.104H318.848V486.551H323.456V488.967H318.848ZM343.12 494.703C343.12 495.262 343.088 495.852 343.024 496.475H328.91C329.017 498.215 329.608 499.58 330.682 500.568C331.778 501.534 333.099 502.018 334.646 502.018C335.913 502.018 336.966 501.728 337.803 501.148C338.663 500.546 339.264 499.751 339.608 498.763H342.766C342.293 500.46 341.348 501.846 339.93 502.92C338.512 503.973 336.751 504.499 334.646 504.499C332.97 504.499 331.466 504.123 330.134 503.371C328.824 502.619 327.793 501.556 327.041 500.181C326.289 498.785 325.913 497.174 325.913 495.348C325.913 493.522 326.278 491.921 327.009 490.546C327.739 489.172 328.76 488.119 330.07 487.389C331.402 486.637 332.927 486.261 334.646 486.261C336.321 486.261 337.803 486.626 339.092 487.356C340.381 488.087 341.37 489.096 342.057 490.385C342.766 491.653 343.12 493.092 343.12 494.703ZM340.091 494.091C340.091 492.974 339.844 492.018 339.35 491.223C338.856 490.407 338.179 489.795 337.32 489.386C336.482 488.957 335.548 488.742 334.517 488.742C333.034 488.742 331.767 489.215 330.714 490.16C329.683 491.105 329.093 492.415 328.942 494.091H340.091ZM371.242 486.551V504.209H368.31V501.599C367.751 502.501 366.967 503.21 365.957 503.726C364.969 504.22 363.874 504.467 362.671 504.467C361.296 504.467 360.061 504.188 358.965 503.629C357.869 503.049 356.999 502.19 356.355 501.051C355.732 499.913 355.42 498.527 355.42 496.894V486.551H358.321V496.508C358.321 498.248 358.761 499.59 359.642 500.536C360.522 501.459 361.725 501.921 363.251 501.921C364.819 501.921 366.054 501.438 366.956 500.471C367.859 499.504 368.31 498.097 368.31 496.25V486.551H371.242ZM384.797 486.229C386.945 486.229 388.685 486.884 390.017 488.194C391.349 489.483 392.014 491.352 392.014 493.801V504.209H389.114V494.22C389.114 492.458 388.674 491.116 387.793 490.192C386.913 489.247 385.71 488.774 384.184 488.774C382.638 488.774 381.402 489.257 380.479 490.224C379.576 491.191 379.125 492.598 379.125 494.445V504.209H376.193V486.551H379.125V489.064C379.705 488.162 380.489 487.464 381.478 486.97C382.487 486.476 383.594 486.229 384.797 486.229ZM398.319 483.683C397.76 483.683 397.288 483.49 396.901 483.103C396.514 482.716 396.321 482.244 396.321 481.685C396.321 481.127 396.514 480.654 396.901 480.267C397.288 479.881 397.76 479.687 398.319 479.687C398.856 479.687 399.307 479.881 399.672 480.267C400.059 480.654 400.252 481.127 400.252 481.685C400.252 482.244 400.059 482.716 399.672 483.103C399.307 483.49 398.856 483.683 398.319 483.683ZM399.737 486.551V504.209H396.804V486.551H399.737ZM403.639 495.315C403.639 493.511 404.004 491.932 404.734 490.579C405.465 489.204 406.464 488.14 407.731 487.389C409.02 486.637 410.459 486.261 412.049 486.261C413.574 486.261 414.906 486.604 416.045 487.292C417.205 487.958 418.053 488.785 418.59 489.773V486.551H421.555V512.587H418.59V500.954C418.032 501.943 417.172 502.78 416.012 503.468C414.852 504.155 413.499 504.499 411.952 504.499C410.406 504.499 408.998 504.112 407.731 503.339C406.464 502.566 405.465 501.481 404.734 500.084C404.004 498.688 403.639 497.098 403.639 495.315ZM418.59 495.348C418.59 494.016 418.322 492.856 417.785 491.868C417.248 490.879 416.517 490.128 415.593 489.612C414.691 489.075 413.692 488.806 412.597 488.806C411.501 488.806 410.502 489.064 409.6 489.58C408.698 490.095 407.978 490.847 407.441 491.835C406.904 492.824 406.635 493.984 406.635 495.315C406.635 496.669 406.904 497.85 407.441 498.86C407.978 499.848 408.698 500.611 409.6 501.148C410.502 501.663 411.501 501.921 412.597 501.921C413.692 501.921 414.691 501.663 415.593 501.148C416.517 500.611 417.248 499.848 417.785 498.86C418.322 497.85 418.59 496.68 418.59 495.348ZM442.17 486.551V504.209H439.238V501.599C438.68 502.501 437.895 503.21 436.886 503.726C435.898 504.22 434.802 504.467 433.599 504.467C432.224 504.467 430.989 504.188 429.893 503.629C428.798 503.049 427.928 502.19 427.283 501.051C426.66 499.913 426.349 498.527 426.349 496.894V486.551H429.249V496.508C429.249 498.248 429.689 499.59 430.57 500.536C431.451 501.459 432.654 501.921 434.179 501.921C435.747 501.921 436.982 501.438 437.885 500.471C438.787 499.504 439.238 498.097 439.238 496.25V486.551H442.17ZM463.233 494.703C463.233 495.262 463.201 495.852 463.136 496.475H449.023C449.13 498.215 449.721 499.58 450.795 500.568C451.89 501.534 453.212 502.018 454.758 502.018C456.026 502.018 457.078 501.728 457.916 501.148C458.775 500.546 459.377 499.751 459.721 498.763H462.878C462.406 500.46 461.461 501.846 460.043 502.92C458.625 503.973 456.864 504.499 454.758 504.499C453.083 504.499 451.579 504.123 450.247 503.371C448.937 502.619 447.906 501.556 447.154 500.181C446.402 498.785 446.026 497.174 446.026 495.348C446.026 493.522 446.391 491.921 447.121 490.546C447.852 489.172 448.872 488.119 450.183 487.389C451.514 486.637 453.04 486.261 454.758 486.261C456.434 486.261 457.916 486.626 459.205 487.356C460.494 488.087 461.482 489.096 462.17 490.385C462.878 491.653 463.233 493.092 463.233 494.703ZM460.204 494.091C460.204 492.974 459.957 492.018 459.463 491.223C458.969 490.407 458.292 489.795 457.433 489.386C456.595 488.957 455.661 488.742 454.629 488.742C453.147 488.742 451.88 489.215 450.827 490.16C449.796 491.105 449.205 492.415 449.055 494.091H460.204ZM482.268 501.502L487.746 486.551H490.871L483.943 504.209H480.528L473.6 486.551H476.758L482.268 501.502ZM492.661 495.315C492.661 493.511 493.026 491.932 493.757 490.579C494.487 489.204 495.486 488.14 496.753 487.389C498.042 486.637 499.471 486.261 501.039 486.261C502.586 486.261 503.928 486.594 505.067 487.26C506.206 487.926 507.054 488.763 507.613 489.773V486.551H510.577V504.209H507.613V500.922C507.033 501.953 506.163 502.813 505.003 503.5C503.864 504.166 502.532 504.499 501.007 504.499C499.439 504.499 498.021 504.112 496.753 503.339C495.486 502.566 494.487 501.481 493.757 500.084C493.026 498.688 492.661 497.098 492.661 495.315ZM507.613 495.348C507.613 494.016 507.344 492.856 506.807 491.868C506.27 490.879 505.54 490.128 504.616 489.612C503.714 489.075 502.715 488.806 501.619 488.806C500.524 488.806 499.525 489.064 498.622 489.58C497.72 490.095 497.001 490.847 496.463 491.835C495.926 492.824 495.658 493.984 495.658 495.315C495.658 496.669 495.926 497.85 496.463 498.86C497.001 499.848 497.72 500.611 498.622 501.148C499.525 501.663 500.524 501.921 501.619 501.921C502.715 501.921 503.714 501.663 504.616 501.148C505.54 500.611 506.27 499.848 506.807 498.86C507.344 497.85 507.613 496.68 507.613 495.348ZM518.465 480.364V504.209H515.532V480.364H518.465ZM539.123 486.551V504.209H536.19V501.599C535.632 502.501 534.848 503.21 533.838 503.726C532.85 504.22 531.754 504.467 530.551 504.467C529.177 504.467 527.941 504.188 526.846 503.629C525.75 503.049 524.88 502.19 524.236 501.051C523.613 499.913 523.301 498.527 523.301 496.894V486.551H526.201V496.508C526.201 498.248 526.642 499.59 527.522 500.536C528.403 501.459 529.606 501.921 531.131 501.921C532.7 501.921 533.935 501.438 534.837 500.471C535.739 499.504 536.19 498.097 536.19 496.25V486.551H539.123ZM560.185 494.703C560.185 495.262 560.153 495.852 560.089 496.475H545.975C546.082 498.215 546.673 499.58 547.747 500.568C548.843 501.534 550.164 502.018 551.711 502.018C552.978 502.018 554.031 501.728 554.868 501.148C555.728 500.546 556.329 499.751 556.673 498.763H559.831C559.358 500.46 558.413 501.846 556.995 502.92C555.577 503.973 553.816 504.499 551.711 504.499C550.035 504.499 548.531 504.123 547.199 503.371C545.889 502.619 544.858 501.556 544.106 500.181C543.354 498.785 542.978 497.174 542.978 495.348C542.978 493.522 543.343 491.921 544.074 490.546C544.804 489.172 545.825 488.119 547.135 487.389C548.467 486.637 549.992 486.261 551.711 486.261C553.386 486.261 554.868 486.626 556.157 487.356C557.446 488.087 558.435 489.096 559.122 490.385C559.831 491.653 560.185 493.092 560.185 494.703ZM557.156 494.091C557.156 492.974 556.909 492.018 556.415 491.223C555.921 490.407 555.244 489.795 554.385 489.386C553.547 488.957 552.613 488.742 551.582 488.742C550.099 488.742 548.832 489.215 547.779 490.16C546.748 491.105 546.158 492.415 546.007 494.091H557.156ZM570.307 504.499C568.954 504.499 567.74 504.273 566.666 503.822C565.592 503.35 564.743 502.705 564.12 501.889C563.497 501.051 563.154 500.095 563.089 499.021H566.118C566.204 499.902 566.612 500.621 567.343 501.18C568.094 501.739 569.072 502.018 570.275 502.018C571.392 502.018 572.273 501.771 572.917 501.277C573.562 500.783 573.884 500.16 573.884 499.408C573.884 498.634 573.54 498.065 572.853 497.7C572.165 497.313 571.102 496.937 569.663 496.572C568.352 496.228 567.278 495.885 566.44 495.541C565.624 495.176 564.915 494.649 564.314 493.962C563.734 493.253 563.444 492.329 563.444 491.191C563.444 490.289 563.712 489.462 564.249 488.71C564.786 487.958 565.549 487.367 566.537 486.937C567.525 486.486 568.653 486.261 569.92 486.261C571.875 486.261 573.454 486.755 574.657 487.743C575.86 488.731 576.505 490.085 576.591 491.803H573.658C573.594 490.879 573.218 490.138 572.53 489.58C571.865 489.021 570.962 488.742 569.824 488.742C568.771 488.742 567.933 488.967 567.31 489.419C566.687 489.87 566.376 490.46 566.376 491.191C566.376 491.771 566.558 492.254 566.924 492.641C567.31 493.006 567.783 493.307 568.341 493.543C568.922 493.758 569.716 494.005 570.726 494.284C571.993 494.628 573.025 494.972 573.819 495.315C574.614 495.638 575.291 496.132 575.849 496.798C576.429 497.464 576.73 498.334 576.752 499.408C576.752 500.374 576.483 501.244 575.946 502.018C575.409 502.791 574.646 503.403 573.658 503.855C572.692 504.284 571.575 504.499 570.307 504.499Z" fill="white"/>
<path d="M163.187 544.803C163.55 545.189 163.745 545.703 163.729 546.232C163.713 546.762 163.487 547.263 163.102 547.626L141.979 567.534C141.549 567.94 140.976 568.16 140.385 568.15C139.794 568.139 139.23 567.897 138.815 567.475L131.676 560.231C131.487 560.045 131.337 559.823 131.235 559.579C131.132 559.335 131.079 559.072 131.079 558.807C131.079 558.542 131.131 558.28 131.233 558.035C131.335 557.791 131.485 557.569 131.674 557.383C131.863 557.197 132.086 557.05 132.332 556.952C132.578 556.853 132.841 556.804 133.106 556.808C133.371 556.812 133.633 556.869 133.876 556.975C134.119 557.081 134.338 557.234 134.521 557.426L140.472 563.464L160.363 544.718C160.749 544.355 161.263 544.16 161.793 544.176C162.322 544.192 162.824 544.417 163.187 544.803Z" fill="white"/>
<path d="M202.941 567.052C201.458 567.052 200.127 566.794 198.945 566.278C197.785 565.741 196.872 565.011 196.206 564.087C195.54 563.142 195.196 562.057 195.175 560.833H198.301C198.408 561.885 198.838 562.777 199.59 563.507C200.363 564.216 201.48 564.571 202.941 564.571C204.337 564.571 205.433 564.227 206.227 563.539C207.044 562.831 207.452 561.928 207.452 560.833C207.452 559.973 207.216 559.275 206.743 558.738C206.27 558.201 205.68 557.793 204.971 557.514C204.262 557.234 203.306 556.934 202.103 556.611C200.621 556.225 199.428 555.838 198.526 555.451C197.645 555.065 196.883 554.463 196.238 553.647C195.615 552.809 195.304 551.692 195.304 550.296C195.304 549.071 195.615 547.986 196.238 547.041C196.861 546.096 197.731 545.366 198.848 544.85C199.987 544.334 201.287 544.077 202.747 544.077C204.853 544.077 206.571 544.603 207.903 545.656C209.256 546.708 210.019 548.105 210.191 549.845H206.969C206.861 548.985 206.41 548.233 205.615 547.589C204.82 546.923 203.768 546.59 202.457 546.59C201.233 546.59 200.234 546.912 199.461 547.557C198.687 548.18 198.301 549.061 198.301 550.199C198.301 551.015 198.526 551.681 198.977 552.197C199.45 552.712 200.019 553.11 200.685 553.389C201.373 553.647 202.328 553.948 203.553 554.291C205.035 554.7 206.227 555.108 207.13 555.516C208.032 555.903 208.805 556.515 209.45 557.353C210.094 558.169 210.416 559.286 210.416 560.704C210.416 561.799 210.126 562.831 209.546 563.797C208.966 564.764 208.107 565.548 206.969 566.149C205.83 566.751 204.487 567.052 202.941 567.052ZM230.392 549.168V566.826H227.46V564.216C226.901 565.118 226.117 565.827 225.107 566.343C224.119 566.837 223.024 567.084 221.821 567.084C220.446 567.084 219.211 566.805 218.115 566.246C217.019 565.666 216.149 564.807 215.505 563.668C214.882 562.53 214.57 561.144 214.57 559.512V549.168H217.471V559.125C217.471 560.865 217.911 562.208 218.792 563.153C219.672 564.076 220.875 564.538 222.401 564.538C223.969 564.538 225.204 564.055 226.106 563.088C227.009 562.122 227.46 560.715 227.46 558.867V549.168H230.392ZM238.275 552.422C238.855 551.413 239.715 550.575 240.853 549.909C242.013 549.222 243.356 548.878 244.881 548.878C246.449 548.878 247.867 549.254 249.134 550.006C250.423 550.758 251.433 551.821 252.163 553.196C252.894 554.549 253.259 556.128 253.259 557.933C253.259 559.716 252.894 561.305 252.163 562.702C251.433 564.098 250.423 565.183 249.134 565.956C247.867 566.73 246.449 567.116 244.881 567.116C243.377 567.116 242.045 566.783 240.885 566.117C239.747 565.43 238.877 564.581 238.275 563.572V575.204H235.343V549.168H238.275V552.422ZM250.262 557.933C250.262 556.601 249.994 555.441 249.457 554.453C248.92 553.464 248.189 552.712 247.266 552.197C246.363 551.681 245.364 551.424 244.269 551.424C243.195 551.424 242.196 551.692 241.272 552.229C240.37 552.745 239.639 553.507 239.081 554.517C238.544 555.505 238.275 556.654 238.275 557.965C238.275 559.297 238.544 560.467 239.081 561.477C239.639 562.465 240.37 563.228 241.272 563.765C242.196 564.281 243.195 564.538 244.269 564.538C245.364 564.538 246.363 564.281 247.266 563.765C248.189 563.228 248.92 562.465 249.457 561.477C249.994 560.467 250.262 559.286 250.262 557.933ZM260.051 552.422C260.631 551.413 261.49 550.575 262.629 549.909C263.789 549.222 265.132 548.878 266.657 548.878C268.225 548.878 269.643 549.254 270.91 550.006C272.199 550.758 273.209 551.821 273.939 553.196C274.67 554.549 275.035 556.128 275.035 557.933C275.035 559.716 274.67 561.305 273.939 562.702C273.209 564.098 272.199 565.183 270.91 565.956C269.643 566.73 268.225 567.116 266.657 567.116C265.153 567.116 263.821 566.783 262.661 566.117C261.523 565.43 260.653 564.581 260.051 563.572V575.204H257.119V549.168H260.051V552.422ZM272.038 557.933C272.038 556.601 271.769 555.441 271.232 554.453C270.695 553.464 269.965 552.712 269.041 552.197C268.139 551.681 267.14 551.424 266.045 551.424C264.97 551.424 263.972 551.692 263.048 552.229C262.146 552.745 261.415 553.507 260.857 554.517C260.32 555.505 260.051 556.654 260.051 557.965C260.051 559.297 260.32 560.467 260.857 561.477C261.415 562.465 262.146 563.228 263.048 563.765C263.972 564.281 264.97 564.538 266.045 564.538C267.14 564.538 268.139 564.281 269.041 563.765C269.965 563.228 270.695 562.465 271.232 561.477C271.769 560.467 272.038 559.286 272.038 557.933ZM286.596 567.116C284.942 567.116 283.438 566.74 282.085 565.988C280.753 565.237 279.7 564.173 278.927 562.798C278.175 561.402 277.799 559.791 277.799 557.965C277.799 556.16 278.186 554.571 278.959 553.196C279.754 551.799 280.828 550.736 282.181 550.006C283.535 549.254 285.049 548.878 286.725 548.878C288.4 548.878 289.915 549.254 291.268 550.006C292.621 550.736 293.685 551.789 294.458 553.164C295.253 554.538 295.65 556.139 295.65 557.965C295.65 559.791 295.242 561.402 294.426 562.798C293.631 564.173 292.546 565.237 291.171 565.988C289.797 566.74 288.271 567.116 286.596 567.116ZM286.596 564.538C287.648 564.538 288.637 564.291 289.56 563.797C290.484 563.303 291.225 562.562 291.784 561.574C292.364 560.586 292.654 559.383 292.654 557.965C292.654 556.547 292.374 555.344 291.816 554.356C291.257 553.368 290.527 552.637 289.625 552.165C288.723 551.671 287.745 551.424 286.692 551.424C285.618 551.424 284.63 551.671 283.728 552.165C282.847 552.637 282.138 553.368 281.601 554.356C281.064 555.344 280.796 556.547 280.796 557.965C280.796 559.404 281.053 560.618 281.569 561.606C282.106 562.594 282.815 563.335 283.696 563.829C284.576 564.302 285.543 564.538 286.596 564.538ZM302.438 552.036C302.954 551.026 303.684 550.242 304.629 549.684C305.596 549.125 306.767 548.846 308.142 548.846V551.875H307.368C304.082 551.875 302.438 553.658 302.438 557.224V566.826H299.506V549.168H302.438V552.036ZM315.103 551.585V561.993C315.103 562.852 315.286 563.464 315.651 563.829C316.016 564.173 316.65 564.345 317.552 564.345H319.711V566.826H317.069C315.436 566.826 314.212 566.45 313.396 565.698C312.579 564.946 312.171 563.711 312.171 561.993V551.585H309.883V549.168H312.171V544.721H315.103V549.168H319.711V551.585H315.103ZM339.041 551.585H335.335V566.826H332.403V551.585H330.115V549.168H332.403V547.911C332.403 545.935 332.907 544.496 333.917 543.593C334.948 542.67 336.592 542.208 338.847 542.208V544.657C337.558 544.657 336.645 544.915 336.108 545.43C335.593 545.924 335.335 546.751 335.335 547.911V549.168H339.041V551.585ZM350.161 567.116C348.507 567.116 347.003 566.74 345.65 565.988C344.318 565.237 343.265 564.173 342.492 562.798C341.74 561.402 341.364 559.791 341.364 557.965C341.364 556.16 341.751 554.571 342.524 553.196C343.319 551.799 344.393 550.736 345.746 550.006C347.1 549.254 348.614 548.878 350.29 548.878C351.965 548.878 353.48 549.254 354.833 550.006C356.186 550.736 357.25 551.789 358.023 553.164C358.818 554.538 359.215 556.139 359.215 557.965C359.215 559.791 358.807 561.402 357.991 562.798C357.196 564.173 356.111 565.237 354.736 565.988C353.362 566.74 351.836 567.116 350.161 567.116ZM350.161 564.538C351.213 564.538 352.202 564.291 353.125 563.797C354.049 563.303 354.79 562.562 355.349 561.574C355.929 560.586 356.219 559.383 356.219 557.965C356.219 556.547 355.939 555.344 355.381 554.356C354.822 553.368 354.092 552.637 353.19 552.165C352.287 551.671 351.31 551.424 350.257 551.424C349.183 551.424 348.195 551.671 347.293 552.165C346.412 552.637 345.703 553.368 345.166 554.356C344.629 555.344 344.361 556.547 344.361 557.965C344.361 559.404 344.618 560.618 345.134 561.606C345.671 562.594 346.38 563.335 347.261 563.829C348.141 564.302 349.108 564.538 350.161 564.538ZM366.003 552.036C366.519 551.026 367.249 550.242 368.194 549.684C369.161 549.125 370.332 548.846 371.707 548.846V551.875H370.933C367.647 551.875 366.003 553.658 366.003 557.224V566.826H363.071V549.168H366.003V552.036ZM382.587 557.965C382.587 556.139 382.952 554.549 383.682 553.196C384.413 551.821 385.422 550.758 386.711 550.006C388.022 549.254 389.515 548.878 391.19 548.878C393.36 548.878 395.143 549.404 396.539 550.457C397.957 551.509 398.892 552.97 399.343 554.839H396.185C395.884 553.765 395.293 552.917 394.413 552.294C393.553 551.671 392.479 551.359 391.19 551.359C389.515 551.359 388.161 551.939 387.13 553.099C386.099 554.238 385.583 555.86 385.583 557.965C385.583 560.092 386.099 561.735 387.13 562.895C388.161 564.055 389.515 564.635 391.19 564.635C392.479 564.635 393.553 564.334 394.413 563.733C395.272 563.131 395.863 562.272 396.185 561.155H399.343C398.87 562.959 397.925 564.409 396.507 565.505C395.089 566.579 393.317 567.116 391.19 567.116C389.515 567.116 388.022 566.74 386.711 565.988C385.422 565.237 384.413 564.173 383.682 562.798C382.952 561.423 382.587 559.812 382.587 557.965ZM410.957 567.116C409.302 567.116 407.799 566.74 406.445 565.988C405.113 565.237 404.061 564.173 403.288 562.798C402.536 561.402 402.16 559.791 402.16 557.965C402.16 556.16 402.546 554.571 403.32 553.196C404.115 551.799 405.189 550.736 406.542 550.006C407.895 549.254 409.41 548.878 411.085 548.878C412.761 548.878 414.276 549.254 415.629 550.006C416.982 550.736 418.046 551.789 418.819 553.164C419.614 554.538 420.011 556.139 420.011 557.965C420.011 559.791 419.603 561.402 418.787 562.798C417.992 564.173 416.907 565.237 415.532 565.988C414.157 566.74 412.632 567.116 410.957 567.116ZM410.957 564.538C412.009 564.538 412.997 564.291 413.921 563.797C414.845 563.303 415.586 562.562 416.145 561.574C416.725 560.586 417.015 559.383 417.015 557.965C417.015 556.547 416.735 555.344 416.177 554.356C415.618 553.368 414.888 552.637 413.986 552.165C413.083 551.671 412.106 551.424 411.053 551.424C409.979 551.424 408.991 551.671 408.089 552.165C407.208 552.637 406.499 553.368 405.962 554.356C405.425 555.344 405.156 556.547 405.156 557.965C405.156 559.404 405.414 560.618 405.93 561.606C406.467 562.594 407.176 563.335 408.057 563.829C408.937 564.302 409.904 564.538 410.957 564.538ZM432.47 548.846C434.618 548.846 436.359 549.501 437.69 550.811C439.022 552.1 439.688 553.969 439.688 556.418V566.826H436.788V556.837C436.788 555.076 436.348 553.733 435.467 552.809C434.586 551.864 433.383 551.391 431.858 551.391C430.311 551.391 429.076 551.875 428.152 552.841C427.25 553.808 426.799 555.215 426.799 557.063V566.826H423.867V549.168H426.799V551.681C427.379 550.779 428.163 550.081 429.151 549.587C430.161 549.093 431.267 548.846 432.47 548.846ZM443.383 557.965C443.383 556.139 443.748 554.549 444.478 553.196C445.209 551.821 446.218 550.758 447.507 550.006C448.817 549.254 450.31 548.878 451.986 548.878C454.156 548.878 455.939 549.404 457.335 550.457C458.753 551.509 459.687 552.97 460.139 554.839H456.981C456.68 553.765 456.089 552.917 455.208 552.294C454.349 551.671 453.275 551.359 451.986 551.359C450.31 551.359 448.957 551.939 447.926 553.099C446.895 554.238 446.379 555.86 446.379 557.965C446.379 560.092 446.895 561.735 447.926 562.895C448.957 564.055 450.31 564.635 451.986 564.635C453.275 564.635 454.349 564.334 455.208 563.733C456.068 563.131 456.658 562.272 456.981 561.155H460.139C459.666 562.959 458.721 564.409 457.303 565.505C455.885 566.579 454.113 567.116 451.986 567.116C450.31 567.116 448.817 566.74 447.507 565.988C446.218 565.237 445.209 564.173 444.478 562.798C443.748 561.423 443.383 559.812 443.383 557.965ZM479.712 549.168V566.826H476.779V564.216C476.221 565.118 475.437 565.827 474.427 566.343C473.439 566.837 472.343 567.084 471.14 567.084C469.765 567.084 468.53 566.805 467.435 566.246C466.339 565.666 465.469 564.807 464.824 563.668C464.201 562.53 463.89 561.144 463.89 559.512V549.168H466.79V559.125C466.79 560.865 467.23 562.208 468.111 563.153C468.992 564.076 470.195 564.538 471.72 564.538C473.288 564.538 474.524 564.055 475.426 563.088C476.328 562.122 476.779 560.715 476.779 558.867V549.168H479.712ZM487.595 552.036C488.11 551.026 488.841 550.242 489.786 549.684C490.753 549.125 491.923 548.846 493.298 548.846V551.875H492.525C489.238 551.875 487.595 553.658 487.595 557.224V566.826H484.663V549.168H487.595V552.036ZM499.616 552.036C500.131 551.026 500.861 550.242 501.807 549.684C502.773 549.125 503.944 548.846 505.319 548.846V551.875H504.546C501.259 551.875 499.616 553.658 499.616 557.224V566.826H496.683V549.168H499.616V552.036ZM524.815 557.32C524.815 557.879 524.783 558.47 524.719 559.093H510.605C510.713 560.833 511.303 562.197 512.377 563.185C513.473 564.152 514.794 564.635 516.341 564.635C517.608 564.635 518.661 564.345 519.499 563.765C520.358 563.163 520.959 562.369 521.303 561.38H524.461C523.988 563.078 523.043 564.463 521.625 565.537C520.208 566.59 518.446 567.116 516.341 567.116C514.665 567.116 513.161 566.74 511.83 565.988C510.519 565.237 509.488 564.173 508.736 562.798C507.984 561.402 507.608 559.791 507.608 557.965C507.608 556.139 507.974 554.538 508.704 553.164C509.434 551.789 510.455 550.736 511.765 550.006C513.097 549.254 514.622 548.878 516.341 548.878C518.016 548.878 519.499 549.243 520.788 549.974C522.077 550.704 523.065 551.714 523.752 553.002C524.461 554.27 524.815 555.709 524.815 557.32ZM521.787 556.708C521.787 555.591 521.539 554.635 521.045 553.84C520.551 553.024 519.875 552.412 519.015 552.004C518.178 551.574 517.243 551.359 516.212 551.359C514.73 551.359 513.462 551.832 512.41 552.777C511.378 553.722 510.788 555.033 510.637 556.708H521.787ZM537.29 548.846C539.438 548.846 541.178 549.501 542.51 550.811C543.842 552.1 544.508 553.969 544.508 556.418V566.826H541.607V556.837C541.607 555.076 541.167 553.733 540.286 552.809C539.406 551.864 538.203 551.391 536.677 551.391C535.131 551.391 533.895 551.875 532.972 552.841C532.069 553.808 531.618 555.215 531.618 557.063V566.826H528.686V549.168H531.618V551.681C532.198 550.779 532.982 550.081 533.971 549.587C534.98 549.093 536.087 548.846 537.29 548.846ZM548.202 557.965C548.202 556.139 548.567 554.549 549.297 553.196C550.028 551.821 551.037 550.758 552.326 550.006C553.637 549.254 555.13 548.878 556.805 548.878C558.975 548.878 560.758 549.404 562.154 550.457C563.572 551.509 564.507 552.97 564.958 554.839H561.8C561.499 553.765 560.908 552.917 560.028 552.294C559.168 551.671 558.094 551.359 556.805 551.359C555.13 551.359 553.776 551.939 552.745 553.099C551.714 554.238 551.199 555.86 551.199 557.965C551.199 560.092 551.714 561.735 552.745 562.895C553.776 564.055 555.13 564.635 556.805 564.635C558.094 564.635 559.168 564.334 560.028 563.733C560.887 563.131 561.478 562.272 561.8 561.155H564.958C564.485 562.959 563.54 564.409 562.122 565.505C560.704 566.579 558.932 567.116 556.805 567.116C555.13 567.116 553.637 566.74 552.326 565.988C551.037 565.237 550.028 564.173 549.297 562.798C548.567 561.423 548.202 559.812 548.202 557.965ZM584.08 549.168L573.446 575.14H570.417L573.897 566.633L566.776 549.168H570.03L575.573 563.475L581.051 549.168H584.08Z" fill="white"/>
<path d="M163.187 607.421C163.55 607.807 163.745 608.321 163.729 608.85C163.713 609.38 163.487 609.881 163.102 610.245L141.979 630.152C141.549 630.558 140.976 630.779 140.385 630.768C139.794 630.757 139.23 630.515 138.815 630.094L131.676 622.849C131.487 622.663 131.337 622.441 131.235 622.197C131.132 621.953 131.079 621.69 131.079 621.425C131.079 621.16 131.131 620.898 131.233 620.653C131.335 620.409 131.485 620.187 131.674 620.001C131.863 619.815 132.086 619.668 132.332 619.57C132.578 619.471 132.841 619.422 133.106 619.426C133.371 619.43 133.633 619.487 133.876 619.593C134.119 619.699 134.338 619.852 134.521 620.044L140.472 626.082L160.363 607.336C160.749 606.973 161.263 606.778 161.793 606.794C162.322 606.81 162.824 607.035 163.187 607.421Z" fill="white"/>
<path d="M194.724 618.198C194.724 616.007 195.218 614.042 196.206 612.302C197.194 610.54 198.537 609.165 200.234 608.177C201.953 607.189 203.854 606.695 205.937 606.695C208.386 606.695 210.524 607.286 212.35 608.467C214.176 609.649 215.508 611.324 216.346 613.494H212.833C212.21 612.141 211.308 611.099 210.126 610.368C208.966 609.638 207.57 609.273 205.937 609.273C204.369 609.273 202.962 609.638 201.716 610.368C200.47 611.099 199.493 612.141 198.784 613.494C198.075 614.826 197.721 616.394 197.721 618.198C197.721 619.982 198.075 621.55 198.784 622.903C199.493 624.235 200.47 625.266 201.716 625.996C202.962 626.727 204.369 627.092 205.937 627.092C207.57 627.092 208.966 626.738 210.126 626.029C211.308 625.298 212.21 624.256 212.833 622.903H216.346C215.508 625.051 214.176 626.716 212.35 627.898C210.524 629.058 208.386 629.638 205.937 629.638C203.854 629.638 201.953 629.154 200.234 628.188C198.537 627.199 197.194 625.835 196.206 624.095C195.218 622.355 194.724 620.39 194.724 618.198ZM236.371 611.786V629.444H233.439V626.834C232.88 627.737 232.096 628.445 231.086 628.961C230.098 629.455 229.003 629.702 227.8 629.702C226.425 629.702 225.189 629.423 224.094 628.864C222.998 628.284 222.128 627.425 221.484 626.286C220.861 625.148 220.549 623.762 220.549 622.13V611.786H223.449V621.743C223.449 623.483 223.89 624.826 224.771 625.771C225.651 626.695 226.854 627.156 228.38 627.156C229.948 627.156 231.183 626.673 232.085 625.706C232.987 624.74 233.439 623.333 233.439 621.485V611.786H236.371ZM247.573 629.734C246.22 629.734 245.006 629.509 243.932 629.058C242.858 628.585 242.009 627.941 241.386 627.124C240.763 626.286 240.42 625.331 240.355 624.256H243.384C243.47 625.137 243.878 625.857 244.609 626.415C245.361 626.974 246.338 627.253 247.541 627.253C248.658 627.253 249.539 627.006 250.183 626.512C250.828 626.018 251.15 625.395 251.15 624.643C251.15 623.87 250.806 623.3 250.119 622.935C249.431 622.549 248.368 622.173 246.929 621.807C245.618 621.464 244.544 621.12 243.706 620.776C242.89 620.411 242.181 619.885 241.58 619.197C241 618.489 240.71 617.565 240.71 616.426C240.71 615.524 240.978 614.697 241.515 613.945C242.052 613.193 242.815 612.602 243.803 612.173C244.791 611.722 245.919 611.496 247.186 611.496C249.141 611.496 250.72 611.99 251.923 612.978C253.126 613.967 253.771 615.32 253.857 617.038H250.924C250.86 616.115 250.484 615.374 249.797 614.815C249.131 614.257 248.228 613.977 247.09 613.977C246.037 613.977 245.199 614.203 244.576 614.654C243.953 615.105 243.642 615.696 243.642 616.426C243.642 617.006 243.825 617.49 244.19 617.876C244.576 618.241 245.049 618.542 245.608 618.779C246.188 618.993 246.982 619.24 247.992 619.52C249.26 619.863 250.291 620.207 251.085 620.551C251.88 620.873 252.557 621.367 253.116 622.033C253.696 622.699 253.996 623.569 254.018 624.643C254.018 625.61 253.749 626.48 253.212 627.253C252.675 628.027 251.913 628.639 250.924 629.09C249.958 629.52 248.841 629.734 247.573 629.734ZM261.734 614.203V624.611C261.734 625.47 261.917 626.082 262.282 626.448C262.647 626.791 263.281 626.963 264.183 626.963H266.342V629.444H263.7C262.067 629.444 260.842 629.068 260.026 628.317C259.21 627.565 258.802 626.329 258.802 624.611V614.203H256.514V611.786H258.802V607.339H261.734V611.786H266.342V614.203H261.734ZM277.596 629.734C275.942 629.734 274.438 629.358 273.085 628.607C271.753 627.855 270.7 626.791 269.927 625.416C269.175 624.02 268.799 622.409 268.799 620.583C268.799 618.779 269.186 617.189 269.959 615.814C270.754 614.418 271.828 613.354 273.181 612.624C274.535 611.872 276.049 611.496 277.725 611.496C279.4 611.496 280.915 611.872 282.268 612.624C283.622 613.354 284.685 614.407 285.458 615.782C286.253 617.157 286.651 618.757 286.651 620.583C286.651 622.409 286.242 624.02 285.426 625.416C284.631 626.791 283.547 627.855 282.172 628.607C280.797 629.358 279.272 629.734 277.596 629.734ZM277.596 627.156C278.649 627.156 279.637 626.909 280.561 626.415C281.484 625.921 282.225 625.18 282.784 624.192C283.364 623.204 283.654 622.001 283.654 620.583C283.654 619.165 283.375 617.962 282.816 616.974C282.258 615.986 281.527 615.255 280.625 614.783C279.723 614.289 278.745 614.042 277.693 614.042C276.619 614.042 275.63 614.289 274.728 614.783C273.847 615.255 273.138 615.986 272.601 616.974C272.064 617.962 271.796 619.165 271.796 620.583C271.796 622.022 272.054 623.236 272.569 624.224C273.106 625.212 273.815 625.954 274.696 626.448C275.577 626.92 276.543 627.156 277.596 627.156ZM311.741 611.464C313.116 611.464 314.34 611.754 315.415 612.334C316.489 612.892 317.337 613.741 317.96 614.88C318.583 616.018 318.895 617.404 318.895 619.036V629.444H315.995V619.455C315.995 617.694 315.554 616.351 314.673 615.427C313.814 614.482 312.643 614.009 311.161 614.009C309.636 614.009 308.422 614.504 307.52 615.492C306.618 616.458 306.166 617.866 306.166 619.713V629.444H303.266V619.455C303.266 617.694 302.826 616.351 301.945 615.427C301.086 614.482 299.915 614.009 298.433 614.009C296.908 614.009 295.694 614.504 294.792 615.492C293.89 616.458 293.438 617.866 293.438 619.713V629.444H290.506V611.786H293.438V614.332C294.018 613.408 294.792 612.699 295.758 612.205C296.747 611.711 297.831 611.464 299.013 611.464C300.495 611.464 301.806 611.797 302.944 612.463C304.083 613.129 304.931 614.106 305.49 615.395C305.984 614.149 306.8 613.182 307.939 612.495C309.077 611.808 310.345 611.464 311.741 611.464ZM325.219 608.918C324.661 608.918 324.188 608.725 323.801 608.338C323.415 607.952 323.221 607.479 323.221 606.92C323.221 606.362 323.415 605.889 323.801 605.503C324.188 605.116 324.661 604.923 325.219 604.923C325.756 604.923 326.207 605.116 326.572 605.503C326.959 605.889 327.153 606.362 327.153 606.92C327.153 607.479 326.959 607.952 326.572 608.338C326.207 608.725 325.756 608.918 325.219 608.918ZM326.637 611.786V629.444H323.705V611.786H326.637ZM333.826 627.028H342.494V629.444H330.474V627.028L339.046 614.171H330.539V611.786H342.429V614.171L333.826 627.028ZM345.203 620.551C345.203 618.746 345.568 617.167 346.299 615.814C347.029 614.439 348.028 613.376 349.295 612.624C350.584 611.872 352.013 611.496 353.581 611.496C355.128 611.496 356.47 611.829 357.609 612.495C358.747 613.161 359.596 613.999 360.154 615.008V611.786H363.119V629.444H360.154V626.158C359.574 627.189 358.704 628.048 357.544 628.735C356.406 629.401 355.074 629.734 353.549 629.734C351.981 629.734 350.563 629.348 349.295 628.574C348.028 627.801 347.029 626.716 346.299 625.32C345.568 623.923 345.203 622.334 345.203 620.551ZM360.154 620.583C360.154 619.251 359.886 618.091 359.349 617.103C358.812 616.115 358.081 615.363 357.158 614.847C356.255 614.31 355.257 614.042 354.161 614.042C353.065 614.042 352.066 614.3 351.164 614.815C350.262 615.331 349.542 616.083 349.005 617.071C348.468 618.059 348.2 619.219 348.2 620.551C348.2 621.904 348.468 623.086 349.005 624.095C349.542 625.083 350.262 625.846 351.164 626.383C352.066 626.899 353.065 627.156 354.161 627.156C355.257 627.156 356.255 626.899 357.158 626.383C358.081 625.846 358.812 625.083 359.349 624.095C359.886 623.086 360.154 621.915 360.154 620.583ZM371.007 615.073C371.608 614.02 372.489 613.161 373.649 612.495C374.809 611.829 376.13 611.496 377.612 611.496C379.202 611.496 380.631 611.872 381.898 612.624C383.165 613.376 384.164 614.439 384.895 615.814C385.625 617.167 385.99 618.746 385.99 620.551C385.99 622.334 385.625 623.923 384.895 625.32C384.164 626.716 383.155 627.801 381.866 628.574C380.598 629.348 379.18 629.734 377.612 629.734C376.087 629.734 374.744 629.401 373.584 628.735C372.446 628.069 371.587 627.221 371.007 626.19V629.444H368.074V605.599H371.007V615.073ZM382.994 620.551C382.994 619.219 382.725 618.059 382.188 617.071C381.651 616.083 380.921 615.331 379.997 614.815C379.095 614.3 378.096 614.042 377 614.042C375.926 614.042 374.927 614.31 374.003 614.847C373.101 615.363 372.371 616.125 371.812 617.135C371.275 618.123 371.007 619.273 371.007 620.583C371.007 621.915 371.275 623.086 371.812 624.095C372.371 625.083 373.101 625.846 374.003 626.383C374.927 626.899 375.926 627.156 377 627.156C378.096 627.156 379.095 626.899 379.997 626.383C380.921 625.846 381.651 625.083 382.188 624.095C382.725 623.086 382.994 621.904 382.994 620.551ZM392.782 605.599V629.444H389.85V605.599H392.782ZM413.891 619.939C413.891 620.497 413.859 621.088 413.795 621.711H399.681C399.788 623.451 400.379 624.815 401.453 625.803C402.549 626.77 403.87 627.253 405.417 627.253C406.684 627.253 407.737 626.963 408.575 626.383C409.434 625.782 410.035 624.987 410.379 623.999H413.537C413.064 625.696 412.119 627.081 410.701 628.155C409.284 629.208 407.522 629.734 405.417 629.734C403.741 629.734 402.237 629.358 400.906 628.607C399.595 627.855 398.564 626.791 397.812 625.416C397.06 624.02 396.684 622.409 396.684 620.583C396.684 618.757 397.049 617.157 397.78 615.782C398.51 614.407 399.531 613.354 400.841 612.624C402.173 611.872 403.698 611.496 405.417 611.496C407.092 611.496 408.575 611.861 409.864 612.592C411.152 613.322 412.141 614.332 412.828 615.621C413.537 616.888 413.891 618.327 413.891 619.939ZM410.862 619.326C410.862 618.209 410.615 617.253 410.121 616.458C409.627 615.642 408.951 615.03 408.091 614.622C407.253 614.192 406.319 613.977 405.288 613.977C403.806 613.977 402.538 614.45 401.486 615.395C400.454 616.34 399.864 617.651 399.713 619.326H410.862ZM433.635 611.496C435.16 611.496 436.492 611.829 437.631 612.495C438.791 613.161 439.65 613.999 440.209 615.008V611.786H443.173V629.831C443.173 631.442 442.829 632.871 442.142 634.117C441.455 635.384 440.466 636.372 439.177 637.081C437.91 637.79 436.428 638.145 434.731 638.145C432.411 638.145 430.477 637.597 428.931 636.501C427.384 635.406 426.471 633.913 426.192 632.022H429.092C429.414 633.096 430.08 633.956 431.089 634.6C432.099 635.266 433.313 635.599 434.731 635.599C436.342 635.599 437.652 635.094 438.662 634.084C439.693 633.075 440.209 631.657 440.209 629.831V626.125C439.629 627.156 438.769 628.016 437.631 628.703C436.492 629.391 435.16 629.734 433.635 629.734C432.067 629.734 430.638 629.348 429.349 628.574C428.082 627.801 427.083 626.716 426.353 625.32C425.622 623.923 425.257 622.334 425.257 620.551C425.257 618.746 425.622 617.167 426.353 615.814C427.083 614.439 428.082 613.376 429.349 612.624C430.638 611.872 432.067 611.496 433.635 611.496ZM440.209 620.583C440.209 619.251 439.94 618.091 439.403 617.103C438.866 616.115 438.136 615.363 437.212 614.847C436.31 614.31 435.311 614.042 434.215 614.042C433.12 614.042 432.121 614.3 431.218 614.815C430.316 615.331 429.596 616.083 429.059 617.071C428.522 618.059 428.254 619.219 428.254 620.551C428.254 621.904 428.522 623.086 429.059 624.095C429.596 625.083 430.316 625.846 431.218 626.383C432.121 626.899 433.12 627.156 434.215 627.156C435.311 627.156 436.31 626.899 437.212 626.383C438.136 625.846 438.866 625.083 439.403 624.095C439.94 623.086 440.209 621.915 440.209 620.583ZM464.24 619.939C464.24 620.497 464.208 621.088 464.143 621.711H450.03C450.137 623.451 450.728 624.815 451.802 625.803C452.897 626.77 454.219 627.253 455.765 627.253C457.033 627.253 458.085 626.963 458.923 626.383C459.782 625.782 460.384 624.987 460.728 623.999H463.885C463.413 625.696 462.468 627.081 461.05 628.155C459.632 629.208 457.87 629.734 455.765 629.734C454.09 629.734 452.586 629.358 451.254 628.607C449.944 627.855 448.912 626.791 448.161 625.416C447.409 624.02 447.033 622.409 447.033 620.583C447.033 618.757 447.398 617.157 448.128 615.782C448.859 614.407 449.879 613.354 451.19 612.624C452.521 611.872 454.047 611.496 455.765 611.496C457.441 611.496 458.923 611.861 460.212 612.592C461.501 613.322 462.489 614.332 463.177 615.621C463.885 616.888 464.24 618.327 464.24 619.939ZM461.211 619.326C461.211 618.209 460.964 617.253 460.47 616.458C459.976 615.642 459.299 615.03 458.44 614.622C457.602 614.192 456.667 613.977 455.636 613.977C454.154 613.977 452.887 614.45 451.834 615.395C450.803 616.34 450.212 617.651 450.062 619.326H461.211ZM476.714 611.464C478.862 611.464 480.602 612.119 481.934 613.429C483.266 614.718 483.932 616.587 483.932 619.036V629.444H481.032V619.455C481.032 617.694 480.592 616.351 479.711 615.427C478.83 614.482 477.627 614.009 476.102 614.009C474.555 614.009 473.32 614.493 472.396 615.46C471.494 616.426 471.043 617.833 471.043 619.681V629.444H468.11V611.786H471.043V614.3C471.623 613.397 472.407 612.699 473.395 612.205C474.405 611.711 475.511 611.464 476.714 611.464ZM504.833 619.939C504.833 620.497 504.801 621.088 504.737 621.711H490.623C490.73 623.451 491.321 624.815 492.395 625.803C493.491 626.77 494.812 627.253 496.359 627.253C497.626 627.253 498.679 626.963 499.517 626.383C500.376 625.782 500.977 624.987 501.321 623.999H504.479C504.006 625.696 503.061 627.081 501.643 628.155C500.225 629.208 498.464 629.734 496.359 629.734C494.683 629.734 493.179 629.358 491.848 628.607C490.537 627.855 489.506 626.791 488.754 625.416C488.002 624.02 487.626 622.409 487.626 620.583C487.626 618.757 487.991 617.157 488.722 615.782C489.452 614.407 490.473 613.354 491.783 612.624C493.115 611.872 494.64 611.496 496.359 611.496C498.034 611.496 499.517 611.861 500.806 612.592C502.094 613.322 503.083 614.332 503.77 615.621C504.479 616.888 504.833 618.327 504.833 619.939ZM501.804 619.326C501.804 618.209 501.557 617.253 501.063 616.458C500.569 615.642 499.893 615.03 499.033 614.622C498.195 614.192 497.261 613.977 496.23 613.977C494.748 613.977 493.48 614.45 492.428 615.395C491.396 616.34 490.806 617.651 490.655 619.326H501.804ZM511.636 614.654C512.152 613.644 512.882 612.86 513.827 612.302C514.794 611.743 515.965 611.464 517.34 611.464V614.493H516.566C513.28 614.493 511.636 616.276 511.636 619.842V629.444H508.704V611.786H511.636V614.654ZM519.629 620.551C519.629 618.746 519.994 617.167 520.725 615.814C521.455 614.439 522.454 613.376 523.721 612.624C525.01 611.872 526.439 611.496 528.007 611.496C529.554 611.496 530.896 611.829 532.035 612.495C533.173 613.161 534.022 613.999 534.581 615.008V611.786H537.545V629.444H534.581V626.158C534.001 627.189 533.131 628.048 531.97 628.735C530.832 629.401 529.5 629.734 527.975 629.734C526.407 629.734 524.989 629.348 523.721 628.574C522.454 627.801 521.455 626.716 520.725 625.32C519.994 623.923 519.629 622.334 519.629 620.551ZM534.581 620.583C534.581 619.251 534.312 618.091 533.775 617.103C533.238 616.115 532.508 615.363 531.584 614.847C530.682 614.31 529.683 614.042 528.587 614.042C527.491 614.042 526.493 614.3 525.59 614.815C524.688 615.331 523.968 616.083 523.431 617.071C522.894 618.059 522.626 619.219 522.626 620.551C522.626 621.904 522.894 623.086 523.431 624.095C523.968 625.083 524.688 625.846 525.59 626.383C526.493 626.899 527.491 627.156 528.587 627.156C529.683 627.156 530.682 626.899 531.584 626.383C532.508 625.846 533.238 625.083 533.775 624.095C534.312 623.086 534.581 621.915 534.581 620.583ZM546.077 614.203V624.611C546.077 625.47 546.26 626.082 546.625 626.448C546.99 626.791 547.624 626.963 548.526 626.963H550.685V629.444H548.043C546.41 629.444 545.186 629.068 544.369 628.317C543.553 627.565 543.145 626.329 543.145 624.611V614.203H540.857V611.786H543.145V607.339H546.077V611.786H550.685V614.203H546.077ZM561.939 629.734C560.285 629.734 558.781 629.358 557.428 628.607C556.096 627.855 555.043 626.791 554.27 625.416C553.518 624.02 553.142 622.409 553.142 620.583C553.142 618.779 553.529 617.189 554.302 615.814C555.097 614.418 556.171 613.354 557.525 612.624C558.878 611.872 560.392 611.496 562.068 611.496C563.744 611.496 565.258 611.872 566.612 612.624C567.965 613.354 569.028 614.407 569.802 615.782C570.596 617.157 570.994 618.757 570.994 620.583C570.994 622.409 570.586 624.02 569.769 625.416C568.975 626.791 567.89 627.855 566.515 628.607C565.14 629.358 563.615 629.734 561.939 629.734ZM561.939 627.156C562.992 627.156 563.98 626.909 564.904 626.415C565.827 625.921 566.569 625.18 567.127 624.192C567.707 623.204 567.997 622.001 567.997 620.583C567.997 619.165 567.718 617.962 567.159 616.974C566.601 615.986 565.87 615.255 564.968 614.783C564.066 614.289 563.088 614.042 562.036 614.042C560.962 614.042 559.974 614.289 559.071 614.783C558.191 615.255 557.482 615.986 556.945 616.974C556.408 617.962 556.139 619.165 556.139 620.583C556.139 622.022 556.397 623.236 556.912 624.224C557.449 625.212 558.158 625.954 559.039 626.448C559.92 626.92 560.887 627.156 561.939 627.156ZM577.782 614.654C578.297 613.644 579.028 612.86 579.973 612.302C580.939 611.743 582.11 611.464 583.485 611.464V614.493H582.712C579.425 614.493 577.782 616.276 577.782 619.842V629.444H574.849V611.786H577.782V614.654Z" fill="white"/>
<rect x="884.575" y="-335.225" width="1082.67" height="590.97" rx="64.5572" transform="rotate(-11.6596 884.575 -335.225)" fill="#808AF2"/>
<mask id="mask0_201_2" style="mask-type:luminance" maskUnits="userSpaceOnUse" x="1044" y="46" width="213" height="115">
<path d="M1256.15 46.8468L1044.3 46.6362L1044.22 160.788L1256.06 160.998L1256.15 46.8468Z" fill="white"/>
</mask>
<g mask="url(#mask0_201_2)">
<path d="M1069.58 97.6953C1068.78 99.6695 1067.59 101.439 1066.1 102.888C1064.64 104.31 1062.95 105.448 1061.12 106.248C1059.3 107.049 1057.38 107.548 1055.42 107.729C1053.01 107.948 1050.95 107.779 1049.26 107.223C1047.77 106.731 1046.29 105.82 1044.83 104.488C1044.51 104.196 1044.49 103.678 1044.78 103.348L1050.35 96.9287C1050.65 96.5926 1051.14 96.5828 1051.48 96.8664C1051.92 97.2424 1052.41 97.5629 1052.93 97.8211C1053.73 98.135 1054.59 98.2358 1055.43 98.115C1057.08 97.9599 1058.38 97.3353 1059.35 96.241C1060.31 95.1468 1060.79 93.5919 1060.79 91.576L1060.81 63.7217C1060.81 63.2988 1061.11 62.9466 1061.51 62.9101L1070.05 62.1207C1070.49 62.0795 1070.88 62.4555 1070.88 62.9339L1070.86 90.8906C1070.89 93.2296 1070.45 95.5488 1069.58 97.6953Z" fill="white"/>
<path d="M1107.73 93.5369C1106.94 95.5343 1105.8 97.3476 1104.36 98.8756C1102.91 100.412 1101.22 101.655 1099.35 102.543C1097.45 103.455 1095.42 104.013 1093.34 104.193C1091.33 104.404 1089.3 104.221 1087.36 103.654C1085.54 103.12 1083.84 102.186 1082.38 100.91C1080.94 99.6405 1079.8 98.0248 1079.05 96.1943C1078.24 94.1981 1077.84 92.0398 1077.87 89.8642L1077.89 62.129C1077.89 61.7063 1078.2 61.354 1078.59 61.3174L1087.13 60.5252C1087.58 60.4838 1087.96 60.8599 1087.96 61.3384L1087.94 88.6852C1087.94 90.6988 1088.42 92.2261 1089.38 93.2669C1090.34 94.3111 1091.66 94.7496 1093.35 94.5956C1094.11 94.5528 1094.86 94.3479 1095.55 93.9927C1096.24 93.6375 1096.86 93.1391 1097.37 92.5264C1098.36 91.3064 1098.86 89.6886 1098.87 87.6727L1098.89 60.1893C1098.89 59.7666 1099.19 59.4142 1099.59 59.3776L1108.13 58.5855C1108.58 58.5441 1108.96 58.9201 1108.96 59.3986L1108.94 86.9905C1108.95 89.2376 1108.54 91.4647 1107.73 93.5369Z" fill="white"/>
<path d="M1142.83 91.6695C1142.02 93.4675 1140.86 95.0571 1139.43 96.3292C1137.91 97.671 1136.2 98.7357 1134.36 99.4803C1132.38 100.289 1130.31 100.792 1128.2 100.974C1124.83 101.289 1121.88 101.142 1119.37 100.532C1117.08 99.9733 1114.97 98.8128 1113.21 97.1606C1112.9 96.8699 1112.89 96.3664 1113.17 96.042L1118.61 89.7006C1118.89 89.3735 1119.37 89.3497 1119.7 89.6095C1120.7 90.3778 1121.85 90.8907 1123.07 91.1033C1124.78 91.4499 1126.53 91.5365 1128.27 91.3601C1132.19 90.9998 1134.15 89.5037 1134.15 86.8718C1134.15 85.7623 1133.89 84.9241 1133.35 84.3574C1132.81 83.7904 1131.87 83.4881 1130.64 83.4373L1128.23 83.2924L1125.7 83.1574C1122.05 82.9175 1119.31 81.8771 1117.47 80.0361C1115.59 78.1134 1114.65 75.2621 1114.66 71.4821C1114.63 69.5475 1114.97 67.6277 1115.67 65.8441C1116.37 64.0605 1117.41 62.4518 1118.72 61.12C1121.43 58.2811 1125.07 56.6497 1129.63 56.2259C1132.62 55.9507 1135.24 56.1189 1137.48 56.7305C1139.46 57.2658 1141.3 58.2638 1142.86 59.6488C1143.19 59.9353 1143.21 60.4515 1142.92 60.7822L1137.84 66.6858C1137.43 67.1578 1136.74 67.1705 1136.25 66.8112C1135.48 66.2606 1134.61 65.8913 1133.7 65.7351C1132.25 65.538 1130.79 65.5187 1129.34 65.6778C1127.73 65.8285 1126.5 66.3539 1125.65 67.2538C1125.27 67.6277 1124.95 68.0824 1124.74 68.5902C1124.52 69.098 1124.4 69.6481 1124.39 70.2068C1124.38 70.576 1124.45 70.9424 1124.59 71.2806C1124.73 71.6188 1124.93 71.9206 1125.19 72.1648C1125.84 72.8036 1126.78 73.1478 1128.01 73.1976L1130.25 73.2959L1132.96 73.4775C1136.56 73.6798 1139.25 74.6428 1141.01 76.3668C1143.04 78.3162 1144.06 81.4271 1144.05 85.6993C1144.07 87.7628 1143.65 89.8038 1142.83 91.6695Z" fill="white"/>
<path d="M1169.09 62.5428C1168.7 62.5794 1168.4 62.9317 1168.4 63.3544L1168.37 96.1318C1168.37 96.5545 1168.07 96.9068 1167.67 96.9434L1159.13 97.7355C1158.68 97.777 1158.3 97.4008 1158.3 96.9223L1158.33 64.4315C1158.33 63.953 1157.94 63.5769 1157.5 63.6184L1149.09 64.3982C1148.64 64.4395 1148.26 64.0636 1148.26 63.5851L1148.26 55.6045C1148.26 55.1818 1148.57 54.8295 1148.96 54.7929L1177.64 52.133C1178.09 52.0915 1178.47 52.4676 1178.47 52.9461L1178.47 60.9266C1178.47 61.3493 1178.16 61.7017 1177.77 61.7382L1169.09 62.5428Z" fill="white"/>
<path d="M1075.87 154.875C1073.49 157.372 1070.42 158.798 1066.66 159.152L1049.65 160.714C1049.2 160.755 1048.82 160.379 1048.82 159.9L1048.85 117.664C1048.85 117.242 1049.15 116.89 1049.55 116.853L1065.83 115.341C1070.02 114.955 1073.24 115.804 1075.51 117.888C1077.77 119.972 1078.9 122.954 1078.9 126.833C1078.9 129.013 1078.42 130.855 1077.46 132.359C1076.62 133.719 1075.59 134.927 1074.4 135.94C1074.99 136.276 1075.55 136.645 1076.1 137.044C1076.69 137.501 1077.21 138.044 1077.65 138.659C1078.21 139.448 1078.65 140.336 1078.94 141.283C1079.31 142.49 1079.48 143.754 1079.46 145.023C1079.44 149.092 1078.25 152.376 1075.87 154.875ZM1067.95 125.869C1067.37 125.225 1066.45 124.962 1065.19 125.078L1059.61 125.596C1059.22 125.633 1058.91 125.985 1058.91 126.408L1058.91 131.921C1058.91 132.399 1059.29 132.776 1059.74 132.734L1065.18 132.228C1066.45 132.11 1067.37 131.676 1067.94 130.926C1068.51 130.194 1068.82 129.269 1068.81 128.317C1068.82 127.868 1068.75 127.421 1068.61 127.001C1068.46 126.581 1068.24 126.196 1067.95 125.869ZM1068.48 142.72C1067.89 142.033 1066.96 141.749 1065.7 141.869L1059.6 142.434C1059.2 142.471 1058.9 142.823 1058.9 143.246L1058.89 149.312C1058.89 149.79 1059.28 150.166 1059.72 150.125L1065.69 149.573C1066.96 149.455 1067.89 148.989 1068.48 148.175C1069.07 147.37 1069.39 146.372 1069.37 145.347C1069.41 144.38 1069.09 143.438 1068.48 142.72Z" fill="white"/>
<path d="M1087.22 157.241C1086.77 157.283 1086.39 156.907 1086.39 156.428L1086.42 114.176C1086.42 113.754 1086.73 113.401 1087.12 113.365L1113.45 110.924C1113.89 110.883 1114.28 111.259 1114.28 111.737L1114.27 119.715C1114.27 120.137 1113.97 120.49 1113.57 120.526L1097.19 122.048C1096.79 122.085 1096.49 122.437 1096.49 122.86L1096.48 128.555C1096.48 129.034 1096.87 129.41 1097.31 129.368L1110.84 128.114C1111.29 128.072 1111.67 128.448 1111.67 128.927L1111.67 136.907C1111.67 137.33 1111.36 137.682 1110.97 137.719L1097.17 138.998C1096.78 139.035 1096.48 139.387 1096.48 139.81L1096.47 145.876C1096.47 146.355 1096.85 146.731 1097.3 146.69L1113.42 145.195C1113.87 145.154 1114.25 145.53 1114.25 146.009L1114.24 153.989C1114.24 154.412 1113.94 154.764 1113.55 154.801L1087.22 157.241Z" fill="white"/>
<path d="M1139.82 118.092C1139.43 118.128 1139.12 118.481 1139.12 118.903L1139.1 151.681C1139.1 152.103 1138.8 152.456 1138.4 152.492L1129.86 153.284C1129.41 153.326 1129.03 152.95 1129.03 152.471L1129.05 119.98C1129.05 119.502 1128.67 119.126 1128.22 119.167L1119.81 119.947C1119.37 119.988 1118.98 119.612 1118.98 119.134L1118.99 111.153C1118.99 110.731 1119.29 110.378 1119.69 110.342L1148.37 107.682C1148.82 107.64 1149.2 108.016 1149.2 108.495L1149.2 116.475C1149.2 116.898 1148.89 117.25 1148.5 117.287L1139.82 118.092Z" fill="white"/>
<path d="M1173.48 114.968C1173.09 115.005 1172.78 115.357 1172.78 115.78L1172.76 148.56C1172.76 148.983 1172.45 149.335 1172.06 149.372L1163.52 150.164C1163.07 150.206 1162.69 149.83 1162.69 149.351L1162.71 116.857C1162.71 116.378 1162.33 116.002 1161.88 116.044L1153.47 116.823C1153.03 116.865 1152.64 116.489 1152.64 116.01L1152.65 108.033C1152.65 107.611 1152.95 107.258 1153.35 107.222L1182.03 104.562C1182.48 104.52 1182.86 104.896 1182.86 105.375L1182.85 113.352C1182.85 113.775 1182.55 114.127 1182.16 114.164L1173.48 114.968Z" fill="white"/>
<path d="M1189.53 147.747C1189.08 147.788 1188.7 147.412 1188.7 146.934L1188.73 104.685C1188.73 104.262 1189.03 103.91 1189.43 103.873L1215.75 101.433C1216.2 101.392 1216.58 101.768 1216.58 102.246L1216.57 110.223C1216.57 110.646 1216.27 110.998 1215.87 111.035L1199.49 112.554C1199.09 112.59 1198.79 112.943 1198.79 113.365L1198.79 119.064C1198.79 119.543 1199.17 119.919 1199.62 119.877L1213.14 118.622C1213.59 118.581 1213.98 118.957 1213.97 119.436L1213.97 127.413C1213.97 127.835 1213.67 128.188 1213.27 128.224L1199.47 129.507C1199.08 129.544 1198.78 129.896 1198.78 130.319L1198.77 136.385C1198.77 136.864 1199.16 137.24 1199.6 137.198L1215.72 135.704C1216.17 135.663 1216.55 136.039 1216.55 136.517L1216.55 144.495C1216.55 144.917 1216.24 145.27 1215.85 145.306L1189.53 147.747Z" fill="white"/>
<path d="M1244.91 142.608C1244.6 142.638 1244.3 142.458 1244.16 142.156L1237.39 127.483C1237.25 127.181 1236.95 127.001 1236.63 127.031L1234.45 127.242C1234.06 127.28 1233.75 127.632 1233.75 128.053L1233.74 142.896C1233.74 143.319 1233.44 143.671 1233.05 143.708L1224.5 144.5C1224.06 144.541 1223.67 144.165 1223.67 143.687L1223.71 101.438C1223.71 101.016 1224.01 100.663 1224.4 100.627L1239.93 99.1874C1241.92 98.9656 1243.93 99.1658 1245.85 99.7761C1247.51 100.306 1249.02 101.242 1250.28 102.51C1251.46 103.721 1252.38 105.191 1252.98 106.818C1253.6 108.467 1253.91 110.226 1253.9 112.002C1253.95 114.568 1253.28 117.09 1251.97 119.239C1250.9 121.01 1249.49 122.518 1247.85 123.671C1247.51 123.912 1247.38 124.393 1247.57 124.78L1255.52 140.48C1255.78 140.996 1255.46 141.629 1254.92 141.68L1244.91 142.608ZM1242.66 109.937C1241.88 109.124 1240.81 108.78 1239.47 108.907L1234.49 109.361C1234.09 109.397 1233.79 109.75 1233.79 110.173L1233.78 117.411C1233.78 117.889 1234.17 118.265 1234.61 118.224L1239.48 117.773C1240.08 117.742 1240.68 117.583 1241.22 117.304C1241.77 117.026 1242.26 116.633 1242.67 116.15C1243.43 115.274 1243.85 114.124 1243.85 112.929C1243.86 112.369 1243.76 111.813 1243.56 111.297C1243.35 110.782 1243.05 110.319 1242.66 109.937Z" fill="white"/>
<path d="M1209.13 154.134L1255.37 149.845C1255.76 149.808 1256.07 149.456 1256.07 149.034L1256.07 147.359C1256.07 146.881 1255.68 146.505 1255.24 146.547L1209.13 150.823" fill="white"/>
<path d="M1179.14 156.863L1201.94 154.749C1202.33 154.713 1202.64 154.36 1202.64 153.938L1202.64 152.263C1202.64 151.785 1202.26 151.409 1201.81 151.451L1179.14 153.552" fill="white"/>
<path d="M1060.82 57.1194L1107.06 52.8307C1107.46 52.7941 1107.76 52.4419 1107.76 52.0194L1107.76 50.3452C1107.76 49.8669 1107.38 49.491 1106.93 49.5324L1060.83 53.8087" fill="white"/>
<path d="M1114.25 52.2166L1137.05 50.1027C1137.44 50.0662 1137.74 49.7139 1137.74 49.2913L1137.75 47.617C1137.75 47.1386 1137.36 46.7626 1136.92 46.804L1114.25 48.9055" fill="white"/>
</g>
<rect x="1109" y="691.069" width="346.746" height="388.163" rx="80.6917" transform="rotate(-12.8421 1109 691.069)" fill="#808AF2"/>
</g>
<defs>
<clipPath id="clip0_201_2">
<rect width="1330" height="888" rx="24" fill="white"/>
</clipPath>
</defs>
</svg>
